<svg id="svg" version="1.1" xmlns="http://www.w3.org/2000/svg" xmlns:xlink="http://www.w3.org/1999/xlink" width="400" height="35.46666666666667" viewBox="0, 0, 400,35.46666666666667"><g id="svgg"><path id="path0" d="M8.390 0.413 C 7.825 0.612,7.171 0.901,6.937 1.055 C 6.703 1.208,6.475 1.333,6.431 1.333 C 5.737 1.333,2.000 5.207,2.000 5.926 C 2.000 6.036,1.900 6.209,1.777 6.311 C 1.522 6.523,0.845 8.220,0.343 9.903 C -0.412 12.439,-0.013 17.592,1.099 19.680 C 1.266 19.993,1.406 20.293,1.410 20.346 C 1.455 20.973,4.582 24.667,5.067 24.667 C 5.134 24.667,5.442 24.860,5.752 25.096 C 6.061 25.332,6.357 25.518,6.409 25.509 C 6.461 25.500,6.746 25.619,7.043 25.773 C 7.340 25.927,7.733 26.073,7.917 26.096 C 8.100 26.119,8.697 26.257,9.243 26.403 C 10.318 26.688,11.971 26.731,13.167 26.505 C 13.579 26.426,14.217 26.308,14.583 26.242 C 14.950 26.176,15.389 26.000,15.559 25.852 C 15.729 25.704,15.897 25.600,15.932 25.621 C 15.967 25.641,16.478 25.435,17.067 25.162 C 18.626 24.441,19.028 24.502,19.287 25.500 C 19.416 26.000,19.508 26.083,19.927 26.083 L 20.417 26.083 20.461 21.542 L 20.505 17.000 20.013 17.000 C 19.366 17.000,19.237 17.269,18.734 19.658 C 18.595 20.318,16.945 23.165,16.617 23.308 C 16.544 23.340,16.244 23.587,15.951 23.856 C 13.874 25.761,10.220 25.943,8.657 24.219 C 8.008 23.502,7.272 22.342,7.212 21.942 C 7.183 21.745,7.054 21.283,6.925 20.917 C 6.362 19.309,6.005 11.818,6.370 9.250 C 6.435 8.792,6.570 7.819,6.670 7.089 C 6.770 6.360,6.917 5.684,6.997 5.587 C 7.077 5.491,7.231 5.057,7.341 4.623 C 7.450 4.189,7.601 3.833,7.675 3.833 C 7.750 3.833,7.859 3.682,7.917 3.498 C 8.555 1.488,11.976 0.555,14.333 1.748 C 16.015 2.599,18.354 5.524,18.734 7.250 C 19.099 8.905,19.343 9.333,19.921 9.333 L 20.500 9.333 20.500 5.000 L 20.500 0.667 19.917 0.667 C 19.539 0.667,19.333 0.746,19.333 0.891 C 19.333 1.766,17.093 1.838,16.077 0.995 C 15.962 0.899,15.695 0.788,15.485 0.747 C 15.275 0.707,14.775 0.519,14.373 0.331 C 13.318 -0.165,9.891 -0.118,8.390 0.413 M142.333 1.333 L 142.333 2.000 143.500 2.000 L 144.667 2.000 144.667 12.683 C 144.667 22.273,144.639 23.412,144.394 23.827 C 144.060 24.392,143.346 24.833,142.766 24.833 C 142.372 24.833,142.333 24.893,142.333 25.504 L 142.333 26.174 145.458 26.129 L 148.583 26.083 148.583 25.502 C 148.583 24.938,148.560 24.917,147.817 24.811 C 146.478 24.620,146.039 24.124,145.991 22.750 C 145.978 22.383,145.978 17.771,145.990 12.500 L 146.013 2.917 146.340 3.571 C 146.520 3.932,146.667 4.349,146.667 4.498 C 146.667 4.648,146.825 5.098,147.018 5.498 C 147.211 5.897,147.386 6.380,147.407 6.571 C 147.428 6.761,147.558 7.180,147.695 7.500 C 148.004 8.221,148.276 8.977,148.655 10.167 C 148.815 10.671,149.068 11.318,149.216 11.604 C 149.365 11.890,149.447 12.164,149.398 12.213 C 149.349 12.262,149.438 12.553,149.597 12.860 C 149.756 13.166,149.980 13.754,150.095 14.167 C 150.211 14.579,150.399 15.179,150.513 15.500 C 150.627 15.821,150.868 16.496,151.048 17.000 C 151.227 17.504,151.482 18.123,151.613 18.375 C 151.745 18.627,151.795 18.833,151.726 18.833 C 151.657 18.833,151.690 18.923,151.800 19.033 C 151.910 19.143,152.000 19.392,152.000 19.585 C 152.000 19.779,152.150 20.248,152.333 20.627 C 152.517 21.007,152.667 21.434,152.667 21.577 C 152.667 21.720,152.818 22.159,153.003 22.553 C 153.189 22.948,153.374 23.416,153.414 23.593 C 153.840 25.448,154.242 26.167,154.855 26.167 C 155.347 26.167,155.477 26.096,155.548 25.792 C 155.595 25.585,155.835 24.892,156.080 24.250 C 156.325 23.608,156.550 22.933,156.580 22.750 C 156.610 22.567,156.802 22.004,157.008 21.500 C 157.810 19.532,158.000 19.013,158.000 18.786 C 158.000 18.657,158.122 18.306,158.272 18.006 C 158.422 17.706,158.602 17.226,158.672 16.939 C 158.742 16.652,159.040 15.779,159.333 15.000 C 159.627 14.221,159.938 13.286,160.026 12.923 C 160.113 12.560,160.255 12.178,160.341 12.075 C 160.427 11.971,160.448 11.837,160.387 11.776 C 160.327 11.716,160.357 11.667,160.453 11.667 C 160.550 11.667,160.666 11.460,160.711 11.208 C 160.757 10.956,161.033 10.112,161.324 9.333 C 161.616 8.554,161.929 7.620,162.019 7.257 C 162.110 6.894,162.251 6.516,162.332 6.418 C 162.414 6.320,162.518 6.054,162.565 5.828 C 162.611 5.602,162.839 4.892,163.071 4.250 L 163.493 3.083 163.496 13.958 L 163.500 24.833 162.333 24.833 L 161.167 24.833 161.167 25.500 L 161.167 26.167 166.250 26.167 L 171.333 26.167 171.333 25.500 L 171.333 24.833 170.083 24.833 L 168.833 24.833 168.833 13.417 L 168.833 2.000 170.083 2.000 L 171.333 2.000 171.333 1.414 L 171.333 0.828 167.048 0.872 L 162.764 0.917 162.661 1.417 C 162.604 1.692,162.462 2.096,162.344 2.315 C 162.227 2.534,162.095 2.946,162.052 3.231 C 162.009 3.517,161.861 3.975,161.722 4.250 C 161.427 4.835,160.926 6.361,160.970 6.542 C 160.986 6.610,160.925 6.667,160.833 6.667 C 160.742 6.667,160.667 6.820,160.667 7.008 C 160.667 7.196,160.556 7.563,160.421 7.824 C 160.287 8.085,160.105 8.587,160.018 8.941 C 159.931 9.294,159.620 10.221,159.326 11.000 C 159.033 11.779,158.753 12.604,158.704 12.833 C 158.655 13.063,158.514 13.405,158.391 13.595 C 158.268 13.785,158.141 14.160,158.109 14.429 C 158.078 14.697,157.890 15.232,157.692 15.618 C 157.495 16.004,157.333 16.469,157.333 16.650 C 157.333 17.524,156.788 16.929,156.585 15.833 C 156.542 15.604,156.404 15.154,156.277 14.833 C 155.983 14.088,155.789 13.525,155.001 11.138 C 154.647 10.067,154.281 9.046,154.186 8.869 C 154.091 8.691,153.970 8.302,153.917 8.003 C 153.865 7.705,153.714 7.254,153.583 7.000 C 153.452 6.746,153.302 6.292,153.248 5.991 C 153.195 5.690,153.054 5.250,152.934 5.013 C 152.676 4.503,152.203 3.151,151.997 2.333 C 151.916 2.012,151.728 1.506,151.579 1.208 L 151.309 0.667 146.821 0.667 L 142.333 0.667 142.333 1.333 M249.333 1.292 L 249.333 1.917 250.575 1.862 L 251.817 1.808 251.876 10.779 C 251.936 19.847,251.961 20.297,252.457 21.231 C 252.608 21.516,252.736 21.825,252.741 21.917 C 252.756 22.194,253.659 23.500,253.835 23.500 C 253.926 23.500,254.000 23.613,254.000 23.750 C 254.000 23.887,254.072 24.000,254.159 24.000 C 254.247 24.000,254.506 24.188,254.736 24.418 C 255.267 24.948,257.294 25.972,258.026 26.080 C 258.333 26.125,258.883 26.236,259.250 26.327 C 260.851 26.724,265.116 26.380,266.321 25.756 C 266.601 25.612,266.849 25.511,266.873 25.533 C 267.208 25.842,269.509 23.552,270.130 22.292 C 270.869 20.790,270.862 20.875,270.995 11.667 C 271.062 7.037,271.150 3.129,271.190 2.981 C 271.406 2.182,271.749 1.947,272.718 1.931 L 273.665 1.917 273.666 1.288 L 273.667 0.659 270.458 0.705 L 267.250 0.750 267.198 1.292 C 267.150 1.785,267.187 1.834,267.614 1.843 C 269.639 1.883,269.638 1.880,269.654 10.863 C 269.667 18.615,269.564 20.136,268.922 21.587 C 267.346 25.151,262.212 26.126,259.341 23.407 C 258.886 22.977,258.527 22.578,258.542 22.521 C 258.558 22.463,258.472 22.237,258.350 22.018 C 257.481 20.448,257.440 19.975,257.342 10.609 L 257.250 1.801 258.458 1.862 L 259.667 1.923 259.667 1.295 L 259.667 0.667 254.500 0.667 L 249.333 0.667 249.333 1.292 M186.667 1.417 L 186.667 2.000 187.833 2.000 L 189.000 2.000 189.000 13.417 L 189.000 24.833 187.833 24.833 L 186.667 24.833 186.667 25.500 L 186.667 26.167 191.580 26.167 L 196.494 26.167 196.598 25.750 C 196.795 24.967,196.611 24.833,195.339 24.833 L 194.167 24.833 194.167 12.833 L 194.167 0.833 190.417 0.833 L 186.667 0.833 186.667 1.417 M197.000 1.417 L 197.000 2.000 198.250 2.000 L 199.500 2.000 199.500 13.417 L 199.500 24.833 198.240 24.833 L 196.980 24.833 197.032 25.458 L 197.083 26.083 202.125 26.127 L 207.167 26.172 207.167 25.502 L 207.167 24.833 205.917 24.833 L 204.667 24.833 204.667 12.833 L 204.667 0.833 200.833 0.833 L 197.000 0.833 197.000 1.417 M378.689 3.125 C 378.700 3.469,378.577 4.200,378.414 4.750 C 378.252 5.300,378.117 5.787,378.114 5.833 C 378.105 5.996,376.942 7.752,376.764 7.872 C 376.665 7.940,376.644 7.996,376.718 7.997 C 376.940 8.002,375.371 9.299,375.004 9.415 C 374.819 9.474,374.667 9.585,374.667 9.662 C 374.667 9.738,374.217 9.853,373.667 9.917 L 372.667 10.033 372.667 10.683 L 372.667 11.333 373.577 11.333 L 374.488 11.333 374.546 17.458 C 374.607 23.988,374.598 23.865,375.078 24.600 C 376.073 26.121,379.077 26.869,380.833 26.033 C 381.930 25.510,383.362 24.087,383.295 23.587 C 383.226 23.077,382.358 22.831,382.122 23.254 C 381.780 23.869,381.053 24.478,380.732 24.418 C 380.559 24.386,380.335 24.353,380.235 24.346 C 379.739 24.311,379.667 23.429,379.667 17.409 L 379.667 11.333 381.981 11.333 C 384.469 11.333,384.833 11.477,384.833 12.457 C 384.833 12.623,384.950 12.926,385.093 13.130 C 385.236 13.334,385.379 13.638,385.411 13.805 C 385.469 14.104,386.593 16.623,387.084 17.555 C 387.221 17.815,387.333 18.135,387.333 18.267 C 387.333 18.399,387.517 18.797,387.741 19.152 C 387.964 19.506,388.111 19.834,388.066 19.879 C 388.021 19.924,388.147 20.251,388.347 20.605 C 388.547 20.960,388.881 21.700,389.090 22.250 C 389.298 22.800,389.739 23.832,390.068 24.542 C 390.752 26.018,390.790 26.382,390.355 27.276 C 389.666 28.689,389.333 29.463,389.333 29.649 C 389.333 29.757,389.215 30.026,389.070 30.247 C 388.839 30.599,388.725 30.930,388.679 31.375 C 388.646 31.701,388.292 31.441,388.081 30.936 C 387.459 29.449,385.467 29.108,384.073 30.249 L 383.312 30.873 383.349 32.061 C 383.408 33.990,384.131 34.667,386.132 34.667 C 387.139 34.667,387.378 34.608,387.797 34.255 C 388.067 34.028,388.335 33.891,388.394 33.949 C 388.452 34.008,388.500 33.933,388.500 33.784 C 388.500 33.634,388.652 33.430,388.838 33.331 C 389.024 33.231,389.132 33.079,389.078 32.992 C 389.024 32.905,389.043 32.833,389.119 32.833 C 389.299 32.833,390.429 30.558,390.567 29.917 C 390.586 29.825,390.778 29.412,390.993 29.000 C 391.207 28.587,391.367 28.212,391.349 28.167 C 391.331 28.121,391.482 27.708,391.686 27.250 C 391.890 26.792,392.223 26.042,392.427 25.583 C 392.791 24.765,393.036 24.165,393.074 24.000 C 393.084 23.954,393.297 23.476,393.546 22.938 C 393.796 22.400,394.000 21.819,394.000 21.647 C 394.000 21.474,394.057 21.333,394.126 21.333 C 394.195 21.333,394.351 21.090,394.472 20.792 C 394.594 20.494,394.818 19.952,394.971 19.589 C 395.125 19.225,395.250 18.884,395.250 18.832 C 395.250 18.779,395.430 18.364,395.649 17.910 C 396.327 16.506,396.519 16.068,396.565 15.821 C 396.589 15.690,396.783 15.208,396.995 14.750 C 397.208 14.292,397.465 13.729,397.566 13.500 C 397.667 13.271,397.787 13.046,397.833 13.000 C 397.879 12.954,398.030 12.698,398.167 12.431 C 398.437 11.906,399.239 11.335,399.708 11.334 C 399.937 11.333,400.000 11.190,400.000 10.667 L 400.000 10.000 397.167 10.000 L 394.333 10.000 394.333 10.667 C 394.333 11.298,394.360 11.333,394.839 11.333 C 396.269 11.333,396.823 12.058,396.246 13.175 C 396.106 13.445,396.027 13.667,396.071 13.667 C 396.115 13.667,395.861 14.298,395.506 15.070 C 395.152 15.841,394.905 16.516,394.958 16.570 C 395.012 16.623,394.962 16.667,394.847 16.667 C 394.733 16.667,394.672 16.760,394.712 16.875 C 394.753 16.990,394.660 17.271,394.506 17.500 C 394.352 17.729,394.088 18.289,393.919 18.744 C 393.624 19.538,393.605 19.555,393.444 19.161 C 393.352 18.935,392.990 18.130,392.639 17.372 C 392.287 16.614,392.000 15.947,392.000 15.890 C 392.000 15.833,391.854 15.478,391.676 15.102 C 390.819 13.287,390.000 11.485,390.000 11.413 C 390.000 11.369,390.450 11.333,391.000 11.333 C 391.947 11.333,392.000 11.312,392.000 10.930 C 392.000 9.950,392.339 10.000,385.732 10.000 L 379.667 10.000 379.667 6.250 L 379.667 2.500 379.168 2.500 C 378.699 2.500,378.670 2.537,378.689 3.125 M298.393 2.782 C 296.659 3.121,296.011 5.811,297.340 7.153 C 298.531 8.356,300.615 8.049,301.375 6.558 C 302.428 4.492,300.719 2.327,298.393 2.782 M366.790 3.048 C 366.050 3.496,365.500 4.434,365.500 5.248 C 365.500 5.913,365.992 7.167,366.252 7.167 C 366.348 7.167,366.544 7.304,366.688 7.473 C 367.249 8.128,368.992 7.964,369.801 7.179 C 372.031 5.015,369.432 1.448,366.790 3.048 M113.479 3.191 C 111.537 4.318,112.164 7.730,114.333 7.840 C 115.747 7.912,115.969 7.849,116.669 7.184 C 118.809 5.148,116.053 1.699,113.479 3.191 M345.750 9.612 C 345.200 9.757,344.725 9.942,344.694 10.022 C 344.664 10.101,344.539 10.167,344.416 10.167 C 344.117 10.167,342.948 11.306,342.615 11.922 C 342.347 12.415,342.347 12.414,342.340 11.208 L 342.333 10.000 338.583 10.000 L 334.833 10.000 334.833 10.667 L 334.833 11.333 336.083 11.333 L 337.333 11.333 337.333 18.083 L 337.333 24.833 336.083 24.833 L 334.833 24.833 334.833 25.417 L 334.833 26.000 340.250 26.000 L 345.667 26.000 345.667 25.417 L 345.667 24.833 344.067 24.833 L 342.468 24.833 342.537 19.708 L 342.607 14.583 343.060 13.605 C 344.072 11.421,344.667 11.035,344.667 12.561 C 344.667 14.226,345.549 15.062,347.222 14.982 C 349.293 14.883,350.559 12.965,349.771 11.120 C 349.558 10.621,348.928 9.783,348.804 9.834 C 348.774 9.847,348.552 9.781,348.309 9.689 C 347.470 9.370,346.745 9.348,345.750 9.612 M285.250 9.672 C 284.792 9.742,284.221 9.837,283.982 9.884 C 283.466 9.985,282.195 10.615,281.888 10.921 C 281.770 11.040,281.605 11.162,281.523 11.193 C 281.441 11.225,281.177 11.542,280.937 11.898 L 280.500 12.547 280.500 11.357 L 280.500 10.167 276.573 10.167 L 272.646 10.167 272.698 10.708 L 272.750 11.250 274.042 11.299 L 275.333 11.347 275.333 18.090 L 275.333 24.833 273.989 24.833 L 272.646 24.833 272.698 25.375 L 272.750 25.917 277.583 25.917 L 282.417 25.917 282.417 25.417 C 282.417 24.924,282.402 24.916,281.449 24.866 L 280.482 24.816 280.533 19.783 C 280.582 14.871,280.592 14.737,280.958 14.224 C 281.165 13.935,281.333 13.630,281.333 13.545 C 281.333 13.461,281.708 12.991,282.167 12.500 C 282.625 12.009,283.000 11.670,283.000 11.746 C 283.000 11.823,283.148 11.751,283.329 11.587 C 283.715 11.238,284.993 11.302,285.381 11.690 C 285.974 12.283,286.000 12.584,286.000 18.739 L 286.000 24.833 285.000 24.833 L 284.000 24.833 284.000 25.419 L 284.000 26.005 288.792 25.961 L 293.583 25.917 293.636 25.375 L 293.688 24.833 292.427 24.833 L 291.167 24.833 291.165 19.292 C 291.161 11.431,290.676 10.197,287.410 9.751 C 286.955 9.689,286.471 9.618,286.333 9.592 C 286.196 9.566,285.708 9.603,285.250 9.672 M51.035 9.831 C 50.733 9.902,50.352 10.082,50.188 10.230 C 50.025 10.379,49.834 10.500,49.766 10.500 C 49.585 10.500,48.780 11.335,48.405 11.912 L 48.083 12.407 48.000 11.329 L 47.917 10.250 44.250 10.250 L 40.583 10.250 40.532 10.875 L 40.480 11.500 41.740 11.500 L 43.000 11.500 43.000 18.263 L 43.000 25.026 41.750 24.972 L 40.499 24.917 40.500 25.542 L 40.500 26.167 45.917 26.167 L 51.333 26.167 51.334 25.542 L 51.334 24.917 49.750 24.970 L 48.167 25.023 48.167 20.532 C 48.167 15.287,48.321 14.254,49.336 12.683 C 50.249 11.270,50.630 11.097,50.315 12.240 C 49.591 14.862,53.729 16.318,55.174 13.949 C 56.783 11.312,54.474 9.016,51.035 9.831 M67.750 9.825 C 66.356 10.128,64.498 11.354,64.076 12.250 C 63.958 12.500,63.907 12.282,63.869 11.375 L 63.819 10.167 59.993 10.167 L 56.167 10.167 56.167 10.750 L 56.167 11.333 57.417 11.333 L 58.667 11.333 58.667 18.083 L 58.667 24.833 57.407 24.833 L 56.147 24.833 56.198 25.458 L 56.250 26.083 61.083 26.083 L 65.917 26.083 65.968 25.458 L 66.020 24.833 64.917 24.833 L 63.815 24.833 63.866 19.958 C 63.924 14.405,63.924 14.404,65.476 12.698 C 66.762 11.284,67.974 11.019,68.905 11.950 L 69.333 12.379 69.333 18.606 L 69.333 24.833 68.333 24.833 L 67.333 24.833 67.333 25.500 L 67.333 26.167 72.167 26.167 L 77.000 26.167 77.000 25.500 L 77.000 24.833 75.833 24.833 L 74.667 24.833 74.664 19.625 C 74.661 12.851,74.312 11.405,72.412 10.283 C 71.537 9.767,69.115 9.529,67.750 9.825 M235.500 9.834 C 235.179 9.915,234.710 10.032,234.458 10.094 C 234.206 10.155,234.000 10.272,234.000 10.353 C 234.000 10.434,233.860 10.500,233.689 10.500 C 233.518 10.500,232.918 10.940,232.356 11.479 L 231.333 12.457 231.333 11.312 L 231.333 10.167 227.500 10.167 L 223.667 10.167 223.667 10.750 L 223.667 11.333 224.917 11.333 L 226.167 11.333 226.167 18.083 L 226.167 24.833 224.907 24.833 L 223.647 24.833 223.698 25.458 L 223.750 26.083 228.625 26.128 L 233.500 26.172 233.500 25.503 L 233.500 24.833 232.417 24.833 L 231.333 24.833 231.333 20.187 C 231.333 15.555,231.335 15.537,231.757 14.645 C 232.643 12.774,234.135 11.333,235.187 11.333 C 235.514 11.333,236.659 11.836,236.679 11.989 C 236.686 12.041,236.737 12.233,236.792 12.417 C 236.848 12.600,236.920 15.469,236.954 18.792 L 237.016 24.833 236.008 24.833 L 235.000 24.833 235.000 25.500 L 235.000 26.167 239.833 26.167 L 244.667 26.167 244.667 25.500 L 244.667 24.833 243.430 24.833 L 242.194 24.833 242.113 19.208 C 242.069 16.115,242.002 13.433,241.963 13.250 C 241.705 12.023,240.739 10.500,240.219 10.500 C 240.098 10.500,240.000 10.430,240.000 10.345 C 240.000 10.203,239.656 10.040,239.000 9.873 C 238.417 9.725,236.037 9.698,235.500 9.834 M325.833 9.837 C 324.142 10.070,322.373 11.126,321.125 12.648 C 320.965 12.844,320.833 13.045,320.833 13.096 C 320.833 13.147,320.646 13.435,320.417 13.735 C 320.188 14.036,320.000 14.357,320.000 14.448 C 320.000 14.540,319.869 14.871,319.708 15.183 C 318.927 16.702,319.392 21.473,320.438 22.680 C 320.564 22.825,320.667 23.023,320.667 23.121 C 320.667 23.479,322.780 25.213,323.833 25.718 C 325.414 26.476,329.210 26.518,330.667 25.793 C 332.043 25.108,334.000 23.165,334.000 22.484 C 334.000 22.392,334.124 22.077,334.276 21.783 C 334.845 20.686,334.783 20.000,334.117 20.000 C 333.547 20.000,333.333 20.207,333.333 20.759 C 333.333 21.117,332.545 22.755,332.257 22.994 C 332.116 23.111,332.000 23.284,332.000 23.377 C 332.000 23.720,330.323 24.837,329.640 24.949 C 326.041 25.537,325.032 24.461,324.880 19.875 L 324.802 17.500 329.754 17.500 L 334.707 17.500 334.626 16.542 C 334.581 16.015,334.408 15.283,334.241 14.917 C 334.074 14.550,333.932 14.213,333.926 14.167 C 333.795 13.183,330.500 10.100,329.792 10.298 C 329.723 10.318,329.667 10.267,329.667 10.187 C 329.667 10.052,327.413 9.638,326.952 9.689 C 326.841 9.701,326.337 9.767,325.833 9.837 M355.333 9.715 C 355.287 9.760,354.933 9.833,354.547 9.876 C 354.160 9.920,353.635 10.092,353.380 10.259 C 353.125 10.426,352.917 10.532,352.917 10.496 C 352.917 9.977,350.810 12.879,350.745 13.488 C 350.730 13.632,350.664 14.088,350.600 14.500 C 350.273 16.582,351.666 19.619,352.967 19.660 C 353.086 19.664,353.401 19.779,353.667 19.917 C 353.933 20.054,355.034 20.283,356.115 20.424 C 359.776 20.904,360.181 21.120,360.099 22.546 C 359.998 24.281,359.171 24.904,356.918 24.941 C 355.688 24.962,355.341 24.909,354.976 24.650 C 354.732 24.476,354.468 24.334,354.391 24.334 C 354.193 24.335,352.672 22.624,352.669 22.397 C 352.668 22.295,352.528 22.033,352.357 21.814 C 352.187 21.596,351.997 21.135,351.933 20.792 C 351.827 20.212,351.776 20.167,351.242 20.167 L 350.667 20.167 350.667 23.250 L 350.667 26.333 351.189 26.333 C 351.533 26.333,351.844 26.190,352.098 25.917 C 352.571 25.406,352.902 25.397,354.035 25.861 C 355.478 26.451,358.345 26.390,359.604 25.742 C 362.207 24.403,363.743 19.628,362.163 17.787 C 362.067 17.675,361.803 17.325,361.577 17.009 C 361.352 16.694,361.166 16.506,361.164 16.593 C 361.163 16.683,361.110 16.679,361.039 16.583 C 360.625 16.019,358.087 15.311,355.616 15.070 C 352.920 14.807,351.978 13.301,353.542 11.757 L 354.250 11.057 355.750 11.022 C 358.032 10.969,359.018 11.653,360.108 14.045 C 360.524 14.958,360.576 15.005,361.107 14.970 L 361.667 14.932 361.667 12.299 L 361.667 9.667 361.227 9.667 C 360.973 9.667,360.626 9.842,360.402 10.083 C 359.952 10.569,359.460 10.607,358.562 10.226 C 358.207 10.076,357.729 9.924,357.500 9.890 C 356.350 9.717,355.408 9.641,355.333 9.715 M27.667 9.999 C 25.049 10.788,23.955 11.979,24.019 13.966 C 24.089 16.132,27.909 16.974,28.328 14.917 C 28.346 14.825,28.417 14.675,28.485 14.583 C 29.078 13.781,28.035 11.654,27.161 11.883 C 26.676 12.010,26.764 11.711,27.292 11.439 C 28.562 10.783,31.405 10.922,32.178 11.678 C 32.765 12.252,32.675 11.825,32.781 14.527 L 32.871 16.805 31.977 16.908 C 31.486 16.964,30.430 17.041,29.631 17.079 C 27.573 17.177,24.667 17.926,24.667 18.359 C 24.667 18.436,24.601 18.481,24.521 18.458 C 24.225 18.374,23.208 19.465,22.868 20.230 C 22.590 20.854,22.634 23.349,22.931 23.865 C 23.054 24.077,23.208 24.359,23.275 24.493 C 23.420 24.784,24.196 25.487,24.381 25.495 C 24.453 25.498,24.708 25.629,24.948 25.786 C 25.187 25.943,25.466 26.086,25.567 26.105 C 28.176 26.589,28.547 26.589,30.583 26.109 C 31.135 25.978,32.510 25.147,32.714 24.819 C 32.918 24.492,33.498 24.798,33.501 25.234 C 33.503 25.573,34.577 26.142,35.609 26.352 C 38.113 26.861,40.083 25.671,40.447 23.430 C 40.543 22.837,40.540 22.833,39.938 22.833 C 39.493 22.833,39.333 22.904,39.333 23.102 C 39.333 23.516,38.633 24.667,38.382 24.667 C 37.906 24.667,37.814 23.729,37.828 18.973 C 37.846 12.923,37.649 12.191,35.652 10.913 C 34.204 9.986,29.495 9.447,27.667 9.999 M82.264 10.160 C 81.936 10.327,81.499 10.509,81.292 10.563 C 81.086 10.618,80.656 10.894,80.339 11.177 C 80.021 11.460,79.680 11.742,79.582 11.804 C 78.781 12.312,77.531 14.380,77.147 15.833 C 76.592 17.937,77.043 21.775,77.933 22.513 C 78.059 22.618,78.125 22.766,78.079 22.841 C 77.913 23.109,80.131 25.140,81.080 25.589 C 85.701 27.775,90.877 25.765,92.037 21.333 C 92.410 19.910,92.427 20.000,91.783 20.000 C 91.231 20.000,91.177 20.049,90.914 20.792 C 90.761 21.227,90.577 21.733,90.507 21.917 C 90.436 22.100,90.384 22.287,90.390 22.333 C 90.401 22.416,89.952 22.991,89.530 23.435 C 89.409 23.563,89.358 23.667,89.418 23.667 C 89.558 23.667,88.724 24.342,88.083 24.747 C 87.606 25.049,85.302 25.196,84.489 24.977 C 84.136 24.881,83.426 24.307,83.281 24.000 C 83.217 23.863,83.028 23.525,82.861 23.250 C 82.609 22.833,82.552 22.316,82.516 20.125 L 82.473 17.500 87.336 17.500 L 92.199 17.500 92.117 16.708 C 92.073 16.273,92.002 15.720,91.960 15.480 C 91.876 14.996,91.200 13.524,90.925 13.227 C 90.829 13.122,90.600 12.832,90.417 12.581 C 90.233 12.330,90.046 12.076,90.000 12.015 C 89.748 11.683,88.335 10.690,87.833 10.493 C 87.513 10.367,87.072 10.173,86.855 10.062 C 86.195 9.725,82.982 9.793,82.264 10.160 M97.241 10.227 C 94.048 11.584,92.427 15.249,94.141 17.237 C 94.356 17.487,94.362 17.527,94.167 17.420 C 94.029 17.344,94.142 17.537,94.417 17.849 C 95.269 18.815,95.430 18.955,95.836 19.084 C 96.262 19.219,95.911 19.667,95.378 19.667 C 95.109 19.667,94.211 20.285,93.803 20.750 C 93.048 21.613,92.732 24.249,93.278 25.130 C 93.408 25.339,93.475 25.573,93.427 25.650 C 93.329 25.808,94.165 26.771,94.350 26.714 C 94.785 26.580,94.814 27.170,94.386 27.436 C 90.934 29.576,91.706 33.378,95.904 34.906 C 97.296 35.412,101.345 35.543,102.178 35.108 C 102.413 34.985,102.826 34.831,103.094 34.764 C 104.029 34.534,106.566 32.426,106.588 31.861 C 106.590 31.800,106.732 31.541,106.903 31.285 C 107.908 29.782,107.877 25.775,106.849 24.310 C 105.844 22.878,105.517 22.800,100.067 22.679 C 95.317 22.574,95.133 22.535,95.202 21.638 C 95.268 20.773,97.199 19.738,97.974 20.153 C 99.045 20.726,102.988 20.152,104.138 19.256 C 106.377 17.511,107.059 14.327,105.586 12.500 C 105.188 12.007,105.187 11.709,105.582 11.366 C 106.062 10.949,106.167 11.040,106.167 11.874 C 106.167 13.217,107.764 13.994,108.833 13.172 C 109.063 12.996,109.256 12.792,109.264 12.718 C 109.272 12.644,109.337 12.450,109.409 12.287 C 109.915 11.136,108.331 9.704,106.750 9.882 C 106.025 9.963,104.667 10.501,104.667 10.706 C 104.667 10.939,104.238 10.838,103.323 10.387 C 102.044 9.756,98.565 9.665,97.241 10.227 M125.083 10.218 C 123.595 10.882,123.098 11.204,122.359 11.983 C 121.688 12.690,120.514 14.250,120.653 14.250 C 120.686 14.250,120.538 14.625,120.323 15.083 C 119.847 16.102,119.716 20.374,120.145 20.891 C 120.271 21.043,120.331 21.167,120.279 21.167 C 119.835 21.167,121.470 23.607,122.551 24.557 C 125.131 26.826,129.957 27.125,132.390 25.167 C 133.490 24.280,134.662 22.758,134.672 22.200 C 134.675 22.044,134.785 21.774,134.917 21.600 C 135.048 21.427,135.120 21.225,135.075 21.154 C 135.031 21.082,135.071 20.976,135.164 20.918 C 135.665 20.609,135.336 20.000,134.667 20.000 C 134.127 20.000,134.000 20.059,134.000 20.311 C 134.000 20.777,133.324 22.364,132.943 22.792 C 132.759 22.998,132.678 23.167,132.763 23.167 C 132.847 23.167,132.622 23.429,132.261 23.750 C 131.901 24.071,131.540 24.333,131.460 24.333 C 131.379 24.333,131.353 24.397,131.401 24.474 C 131.507 24.645,129.703 25.167,129.005 25.167 C 126.447 25.167,125.489 23.772,125.369 19.875 L 125.296 17.500 130.334 17.500 L 135.371 17.500 135.253 16.715 C 135.070 15.495,134.114 13.167,133.795 13.167 C 133.724 13.167,133.667 13.076,133.667 12.966 C 133.667 12.559,131.701 10.892,130.603 10.367 C 129.131 9.664,126.486 9.593,125.083 10.218 M177.292 10.013 C 177.131 10.107,177.000 10.138,177.000 10.082 C 177.000 10.027,176.833 10.098,176.630 10.241 C 176.426 10.383,176.126 10.500,175.963 10.500 C 175.800 10.500,175.667 10.587,175.667 10.694 C 175.667 10.801,175.621 10.843,175.566 10.788 C 175.510 10.732,175.379 10.758,175.274 10.845 C 175.169 10.933,174.791 11.228,174.435 11.503 C 171.395 13.839,170.328 19.522,172.366 22.526 C 172.532 22.769,172.667 23.024,172.667 23.093 C 172.667 23.402,174.686 25.137,175.626 25.635 C 176.198 25.938,176.667 26.154,176.667 26.115 C 176.667 26.076,177.098 26.145,177.625 26.269 C 178.814 26.549,179.887 26.559,181.033 26.301 C 181.519 26.192,181.974 26.118,182.045 26.136 C 182.531 26.261,185.333 24.183,185.333 23.698 C 185.333 23.589,185.399 23.500,185.479 23.500 C 185.707 23.500,186.603 21.495,186.726 20.708 L 186.837 20.000 186.270 20.000 C 185.688 20.000,185.553 20.151,185.396 20.973 C 185.168 22.168,183.874 23.916,182.714 24.596 C 180.726 25.760,177.466 24.839,177.234 23.047 C 176.915 20.591,176.836 19.728,176.835 18.708 L 176.833 17.500 181.750 17.500 L 186.667 17.500 186.667 16.612 C 186.667 15.999,186.540 15.472,186.258 14.916 C 186.033 14.472,185.882 14.057,185.921 13.993 C 185.960 13.930,185.844 13.744,185.663 13.580 C 185.482 13.416,185.333 13.194,185.333 13.088 C 185.333 12.981,185.165 12.735,184.958 12.542 C 184.752 12.348,184.500 12.091,184.399 11.970 C 184.061 11.566,183.256 10.973,182.667 10.694 C 182.346 10.541,182.046 10.378,182.000 10.330 C 181.543 9.854,177.977 9.614,177.292 10.013 M212.718 10.120 C 212.369 10.248,211.848 10.425,211.560 10.513 C 211.272 10.601,210.944 10.784,210.831 10.920 C 210.718 11.055,210.550 11.167,210.457 11.167 C 210.364 11.167,210.111 11.358,209.894 11.592 C 209.677 11.826,209.500 11.979,209.500 11.933 C 209.500 11.886,209.313 12.036,209.083 12.265 C 208.854 12.494,208.667 12.726,208.667 12.781 C 208.667 12.835,208.535 12.976,208.375 13.093 C 208.215 13.210,208.081 13.369,208.079 13.445 C 208.077 13.521,207.939 13.786,207.774 14.033 C 207.608 14.280,207.454 14.580,207.431 14.700 C 207.408 14.819,207.255 15.361,207.091 15.904 C 206.531 17.758,206.871 20.786,207.794 22.165 C 207.948 22.395,208.060 22.632,208.043 22.691 C 207.996 22.851,209.659 24.543,210.333 25.022 C 212.461 26.533,216.919 26.936,218.963 25.803 C 219.264 25.636,219.602 25.500,219.715 25.500 C 219.828 25.500,220.122 25.313,220.369 25.083 C 220.617 24.854,220.876 24.667,220.947 24.667 C 221.435 24.667,223.355 21.924,223.577 20.908 C 223.616 20.729,223.721 20.344,223.810 20.052 C 224.025 19.342,224.017 16.471,223.799 16.208 C 223.704 16.094,223.667 16.000,223.717 16.000 C 223.906 16.000,223.124 14.068,222.790 13.708 C 222.599 13.502,222.504 13.333,222.580 13.333 C 222.655 13.333,222.239 12.846,221.654 12.250 C 221.069 11.654,220.520 11.167,220.433 11.167 C 220.347 11.167,220.158 11.066,220.013 10.943 C 218.848 9.951,214.508 9.461,212.718 10.120 M294.000 10.678 L 294.000 11.333 295.333 11.333 L 296.667 11.333 296.667 18.083 L 296.667 24.833 295.333 24.833 L 294.000 24.833 294.000 25.417 L 294.000 26.000 299.083 26.000 L 304.167 26.000 304.167 25.417 L 304.167 24.833 302.917 24.833 L 301.667 24.833 301.667 17.411 L 301.667 9.990 297.833 10.006 L 294.000 10.023 294.000 10.678 M302.667 10.676 L 302.667 11.333 303.542 11.333 L 304.418 11.333 305.232 13.208 C 306.055 15.101,306.378 15.830,307.134 17.500 C 307.363 18.004,307.646 18.642,307.763 18.917 C 307.880 19.192,308.143 19.792,308.348 20.250 C 308.552 20.708,308.705 21.144,308.689 21.219 C 308.673 21.294,308.811 21.568,308.996 21.828 C 309.182 22.089,309.333 22.375,309.333 22.464 C 309.333 22.553,309.528 23.067,309.766 23.605 C 310.004 24.143,310.308 24.846,310.441 25.167 C 310.868 26.198,310.924 26.250,311.595 26.250 C 312.115 26.250,312.275 26.171,312.438 25.833 C 312.833 25.012,313.917 22.413,313.933 22.250 C 313.942 22.158,314.231 21.483,314.575 20.750 C 314.919 20.017,315.235 19.230,315.277 19.001 C 315.320 18.773,315.462 18.467,315.594 18.322 C 315.726 18.176,315.833 18.001,315.833 17.931 C 315.833 17.826,316.153 17.044,316.996 15.083 C 318.102 12.515,318.972 11.333,319.758 11.333 C 320.124 11.333,320.167 11.263,320.167 10.667 L 320.167 10.000 317.333 10.000 L 314.500 10.000 314.500 10.667 L 314.500 11.333 315.261 11.333 C 316.986 11.333,317.057 11.988,315.645 14.891 C 315.474 15.243,315.333 15.610,315.333 15.706 C 315.333 15.878,314.850 16.985,314.386 17.875 C 314.255 18.128,314.119 18.482,314.084 18.664 C 313.948 19.370,313.746 19.545,313.542 19.131 C 313.261 18.558,312.615 17.096,312.598 16.993 C 312.547 16.682,311.234 13.894,311.091 13.794 C 310.995 13.727,310.977 13.671,311.051 13.669 C 311.125 13.668,311.069 13.442,310.926 13.167 C 309.938 11.262,309.932 11.333,311.090 11.333 L 312.014 11.333 311.974 10.662 L 311.934 9.991 307.300 10.005 L 302.667 10.019 302.667 10.676 M363.000 10.667 L 363.000 11.333 364.250 11.333 L 365.500 11.333 365.500 18.083 L 365.500 24.833 364.250 24.833 L 363.000 24.833 363.000 25.419 L 363.000 26.005 368.042 25.961 L 373.083 25.917 373.136 25.375 L 373.188 24.833 371.927 24.833 L 370.667 24.833 370.667 17.417 L 370.667 10.000 366.833 10.000 L 363.000 10.000 363.000 10.667 M110.333 10.750 L 110.333 11.333 111.250 11.333 L 112.167 11.333 112.167 18.083 L 112.167 24.833 111.000 24.833 L 109.833 24.833 109.833 25.502 L 109.833 26.172 114.875 26.127 L 119.917 26.083 119.968 25.458 L 120.020 24.833 118.677 24.833 L 117.333 24.833 117.333 17.500 L 117.333 10.167 113.833 10.167 L 110.333 10.167 110.333 10.750 M85.355 11.175 C 86.276 11.419,86.667 12.457,86.667 14.656 L 86.667 16.333 84.583 16.333 L 82.500 16.333 82.501 14.708 C 82.503 11.539,83.248 10.617,85.355 11.175 M100.724 11.094 C 101.274 11.186,101.410 11.300,101.679 11.892 C 102.117 12.857,102.144 16.963,101.718 17.938 C 101.564 18.293,101.432 18.658,101.427 18.750 C 101.388 19.385,98.912 19.209,98.417 18.536 C 97.996 17.964,97.814 12.815,98.191 12.134 C 98.308 11.923,98.382 11.675,98.355 11.583 C 98.328 11.492,98.361 11.472,98.429 11.541 C 98.498 11.609,98.647 11.532,98.760 11.369 C 98.991 11.039,99.757 10.932,100.724 11.094 M128.984 11.689 C 129.470 12.311,129.487 12.389,129.608 14.625 L 129.701 16.333 127.517 16.333 L 125.333 16.333 125.334 14.875 C 125.335 13.028,125.555 12.245,126.273 11.527 C 127.046 10.754,128.311 10.829,128.984 11.689 M180.451 11.582 C 180.975 12.180,181.165 13.030,181.166 14.792 L 181.167 16.333 178.975 16.333 L 176.782 16.333 176.889 14.479 C 176.952 13.378,177.080 12.521,177.206 12.370 C 177.322 12.230,177.381 12.108,177.336 12.099 C 177.144 12.061,177.810 11.329,178.178 11.174 C 178.848 10.892,180.031 11.105,180.451 11.582 M216.784 11.351 C 216.989 11.461,217.365 11.852,217.620 12.220 L 218.083 12.888 218.083 18.082 L 218.083 23.276 217.583 24.080 C 216.512 25.801,214.010 25.649,213.071 23.806 C 212.478 22.642,212.429 13.763,213.009 12.566 C 213.674 11.191,215.429 10.626,216.784 11.351 M327.913 11.165 C 328.653 11.447,328.992 12.477,328.996 14.458 L 329.000 16.167 326.907 16.167 L 324.814 16.167 324.845 14.499 C 324.900 11.580,325.963 10.424,327.913 11.165 M32.798 20.398 C 32.698 23.344,32.182 24.433,30.676 24.875 C 30.240 25.003,28.398 24.713,28.568 24.544 C 28.619 24.492,28.546 24.365,28.405 24.262 C 27.881 23.879,27.629 20.992,28.003 19.647 C 28.234 18.815,29.131 18.394,31.083 18.201 C 31.908 18.119,32.650 18.041,32.731 18.026 C 32.815 18.011,32.844 19.043,32.798 20.398 M105.434 28.045 C 106.614 29.332,105.524 32.071,103.393 33.170 C 103.131 33.305,102.879 33.458,102.833 33.509 C 101.648 34.833,97.380 34.462,95.484 32.870 C 94.243 31.827,94.462 29.321,95.929 27.773 L 96.382 27.295 100.625 27.362 L 104.869 27.428 105.434 28.045 " stroke="none" fill="#c41434" fill-rule="evenodd"></path><path id="path1" d="M250.042 1.955 C 250.385 1.991,250.948 1.991,251.292 1.955 C 251.635 1.919,251.354 1.889,250.667 1.889 C 249.979 1.889,249.698 1.919,250.042 1.955 M257.621 1.954 C 257.917 1.990,258.442 1.991,258.788 1.955 C 259.134 1.919,258.892 1.889,258.250 1.888 C 257.608 1.887,257.325 1.917,257.621 1.954 M267.375 1.948 C 267.535 1.990,267.798 1.990,267.958 1.948 C 268.119 1.906,267.987 1.872,267.667 1.872 C 267.346 1.872,267.215 1.906,267.375 1.948 M272.627 1.951 C 272.834 1.991,273.134 1.990,273.294 1.948 C 273.453 1.906,273.283 1.874,272.917 1.875 C 272.550 1.877,272.420 1.911,272.627 1.951 M41.208 24.955 C 41.552 24.991,42.115 24.991,42.458 24.955 C 42.802 24.919,42.521 24.889,41.833 24.889 C 41.146 24.889,40.865 24.919,41.208 24.955 M48.875 24.956 C 49.310 24.990,50.023 24.990,50.458 24.956 C 50.894 24.922,50.538 24.893,49.667 24.893 C 48.796 24.893,48.440 24.922,48.875 24.956 " stroke="none" fill="#c81434" fill-rule="evenodd"></path><path id="path2" d="M250.042 1.955 C 250.385 1.991,250.948 1.991,251.292 1.955 C 251.635 1.919,251.354 1.889,250.667 1.889 C 249.979 1.889,249.698 1.919,250.042 1.955 M257.621 1.954 C 257.917 1.990,258.442 1.991,258.788 1.955 C 259.134 1.919,258.892 1.889,258.250 1.888 C 257.608 1.887,257.325 1.917,257.621 1.954 M267.375 1.948 C 267.535 1.990,267.798 1.990,267.958 1.948 C 268.119 1.906,267.987 1.872,267.667 1.872 C 267.346 1.872,267.215 1.906,267.375 1.948 M272.627 1.951 C 272.834 1.991,273.134 1.990,273.294 1.948 C 273.453 1.906,273.283 1.874,272.917 1.875 C 272.550 1.877,272.420 1.911,272.627 1.951 M41.208 24.955 C 41.552 24.991,42.115 24.991,42.458 24.955 C 42.802 24.919,42.521 24.889,41.833 24.889 C 41.146 24.889,40.865 24.919,41.208 24.955 M48.875 24.956 C 49.310 24.990,50.023 24.990,50.458 24.956 C 50.894 24.922,50.538 24.893,49.667 24.893 C 48.796 24.893,48.440 24.922,48.875 24.956 " stroke="none" fill="#c81434" fill-rule="evenodd"></path><path id="path3" d="M250.042 1.955 C 250.385 1.991,250.948 1.991,251.292 1.955 C 251.635 1.919,251.354 1.889,250.667 1.889 C 249.979 1.889,249.698 1.919,250.042 1.955 M257.621 1.954 C 257.917 1.990,258.442 1.991,258.788 1.955 C 259.134 1.919,258.892 1.889,258.250 1.888 C 257.608 1.887,257.325 1.917,257.621 1.954 M267.375 1.948 C 267.535 1.990,267.798 1.990,267.958 1.948 C 268.119 1.906,267.987 1.872,267.667 1.872 C 267.346 1.872,267.215 1.906,267.375 1.948 M272.627 1.951 C 272.834 1.991,273.134 1.990,273.294 1.948 C 273.453 1.906,273.283 1.874,272.917 1.875 C 272.550 1.877,272.420 1.911,272.627 1.951 M41.208 24.955 C 41.552 24.991,42.115 24.991,42.458 24.955 C 42.802 24.919,42.521 24.889,41.833 24.889 C 41.146 24.889,40.865 24.919,41.208 24.955 M48.875 24.956 C 49.310 24.990,50.023 24.990,50.458 24.956 C 50.894 24.922,50.538 24.893,49.667 24.893 C 48.796 24.893,48.440 24.922,48.875 24.956 " stroke="none" fill="#c81434" fill-rule="evenodd"></path><path id="path4" d="M250.042 1.955 C 250.385 1.991,250.948 1.991,251.292 1.955 C 251.635 1.919,251.354 1.889,250.667 1.889 C 249.979 1.889,249.698 1.919,250.042 1.955 M257.621 1.954 C 257.917 1.990,258.442 1.991,258.788 1.955 C 259.134 1.919,258.892 1.889,258.250 1.888 C 257.608 1.887,257.325 1.917,257.621 1.954 M267.375 1.948 C 267.535 1.990,267.798 1.990,267.958 1.948 C 268.119 1.906,267.987 1.872,267.667 1.872 C 267.346 1.872,267.215 1.906,267.375 1.948 M272.627 1.951 C 272.834 1.991,273.134 1.990,273.294 1.948 C 273.453 1.906,273.283 1.874,272.917 1.875 C 272.550 1.877,272.420 1.911,272.627 1.951 M41.208 24.955 C 41.552 24.991,42.115 24.991,42.458 24.955 C 42.802 24.919,42.521 24.889,41.833 24.889 C 41.146 24.889,40.865 24.919,41.208 24.955 M48.875 24.956 C 49.310 24.990,50.023 24.990,50.458 24.956 C 50.894 24.922,50.538 24.893,49.667 24.893 C 48.796 24.893,48.440 24.922,48.875 24.956 " stroke="none" fill="#c81434" fill-rule="evenodd"></path></g></svg>